<?xml version="1.0" encoding="UTF-8"?>
<!DOCTYPE svg PUBLIC "-//W3C//DTD SVG 1.1//EN" "http://www.w3.org/Graphics/SVG/1.1/DTD/svg11.dtd">
<!-- Creator: CorelDRAW 2021 (64-Bit) -->
<svg xmlns="http://www.w3.org/2000/svg" xml:space="preserve" width="67.5994mm" height="24.9944mm" version="1.1" style="shape-rendering:geometricPrecision; text-rendering:geometricPrecision; image-rendering:optimizeQuality; fill-rule:evenodd; clip-rule:evenodd"
viewBox="0 0 998.2 369.08"
 xmlns:xlink="http://www.w3.org/1999/xlink"
 xmlns:xodm="http://www.corel.com/coreldraw/odm/2003">
 <defs>
  <style type="text/css">
   <![CDATA[
    .fil0 {fill:white}
    .fil1 {fill:white;fill-rule:nonzero}
   ]]>
  </style>
 </defs>
 <g id="Capa_x0020_1">
  <metadata id="CorelCorpID_0Corel-Layer"/>
  <polygon class="fil0" points="298.68,347.39 -0,347.39 -0,0 998.2,0 998.2,347.39 698.03,347.39 698.03,334.37 985.18,334.37 985.18,13.02 13.02,13.02 13.02,334.37 298.68,334.37 "/>
  <path class="fil1" d="M290.95 73.39l-9.43 44.16c-1.62,7.72 -3.81,15.66 -6.6,23.83 -2.78,8.17 -5.43,15.66 -7.94,22.48 -3.05,8.08 -6.19,15.98 -9.43,23.7l18.58 -7.27c-2.51,3.95 -4.85,8.44 -7,13.46 -1.98,4.31 -3.99,9.56 -6.06,15.75 -2.06,6.19 -3.91,13.06 -5.52,20.6l-9.42 44.43 -93.71 0 9.16 -44.43 -15.89 0 -9.69 44.43 -93.71 0 9.16 -44.43c1.62,-7.54 3.77,-15.44 6.46,-23.7 2.69,-8.26 5.39,-15.8 8.08,-22.62 3.05,-8.08 6.28,-15.98 9.69,-23.7l-18.58 7.54c2.33,-4.13 4.58,-8.71 6.73,-13.73 1.98,-4.31 3.99,-9.52 6.06,-15.62 2.06,-6.1 3.91,-13.02 5.52,-20.74l9.69 -44.16 203.85 0zm-103.13 44.7l-16.43 0 -14.27 67.32 16.43 0 14.27 -67.32zm92.36 112.02c1.62,-7.54 3.77,-15.44 6.46,-23.7 2.69,-8.26 5.39,-15.8 8.08,-22.62 3.05,-8.08 6.28,-15.98 9.69,-23.7l-18.58 7.27c2.33,-4.13 4.58,-8.71 6.73,-13.73 1.97,-4.31 3.99,-9.52 6.06,-15.62 2.06,-6.1 3.9,-13.02 5.52,-20.74l9.69 -44.43 93.98 0 -9.42 44.43c-1.62,7.72 -3.82,15.71 -6.6,23.97 -2.78,8.26 -5.43,15.8 -7.94,22.62 -3.05,8.08 -6.19,15.98 -9.42,23.7l18.58 -7.54c-2.51,4.13 -4.85,8.71 -7,13.73 -1.97,4.31 -3.99,9.56 -6.06,15.75 -2.06,6.19 -3.9,13.06 -5.52,20.6l95.32 0 -9.69 44.43 -189.04 0 9.16 -44.43zm329.06 -112.56c-0.54,3.59 -1.35,7.54 -2.42,11.85 -0.9,3.59 -2.11,7.94 -3.64,13.06 -1.53,5.12 -3.37,10.64 -5.52,16.56l-0.54 1.88 71.09 0c-2.33,2.33 -4.58,5.57 -6.73,9.69 -1.97,3.59 -4.13,8.21 -6.46,13.87 -2.33,5.65 -4.58,12.61 -6.73,20.87l-55.74 0c-0.9,2.69 -1.89,5.92 -2.96,9.69 -0.9,3.23 -1.98,7.27 -3.23,12.12 -1.26,4.85 -2.6,10.41 -4.04,16.69l-6.46 30.7 -93.71 0 9.16 -44.43c1.62,-7.54 3.77,-15.44 6.46,-23.7 2.69,-8.26 5.39,-15.8 8.08,-22.62 3.05,-8.08 6.28,-15.98 9.69,-23.7l-18.85 7.54c2.33,-4.13 4.58,-8.71 6.73,-13.73 1.98,-4.31 4.04,-9.52 6.19,-15.62 2.15,-6.1 4.04,-13.02 5.65,-20.74l9.69 -44.16 203.58 0 -9.16 44.16 -110.14 0zm344.68 -44.16l-9.43 44.16c-1.62,7.72 -3.81,15.66 -6.6,23.83 -2.78,8.17 -5.43,15.66 -7.94,22.48 -3.05,8.08 -6.19,15.98 -9.43,23.7l18.58 -7.27c-2.51,3.95 -4.85,8.44 -7,13.46 -1.98,4.31 -3.99,9.56 -6.06,15.75 -2.06,6.19 -3.91,13.06 -5.52,20.6l-9.42 44.43 -93.71 0 9.16 -44.43 -15.89 0 -9.69 44.43 -93.71 0 9.16 -44.43c1.62,-7.54 3.77,-15.44 6.46,-23.7 2.69,-8.26 5.39,-15.8 8.08,-22.62 3.05,-8.08 6.28,-15.98 9.69,-23.7l-18.58 7.54c2.33,-4.13 4.58,-8.71 6.73,-13.73 1.98,-4.31 3.99,-9.52 6.06,-15.62 2.06,-6.1 3.91,-13.02 5.52,-20.74l9.69 -44.16 203.85 0zm-103.13 44.7l-16.43 0 -14.27 67.32 16.43 0 14.27 -67.32z"/>
  <path class="fil1" d="M318.33 368.42l0 -60.79 23.54 0 0 6.27 -15.07 0 0 20.09 12.24 0 0 6.05 -12.24 0 0 22.3 15.24 0 0 6.08 -23.72 0zm44.87 0.66c-5.11,0 -9,-1.58 -11.68,-4.73 -2.68,-3.15 -4.17,-7.47 -4.49,-12.94l7.56 -2.05c0.54,8.7 3.4,13.05 8.61,13.05 2.18,0 3.84,-0.61 4.97,-1.83 1.14,-1.2 1.71,-2.98 1.71,-5.33 0,-1.29 -0.16,-2.48 -0.46,-3.55 -0.3,-1.08 -0.8,-2.1 -1.5,-3.08 -0.7,-0.98 -1.35,-1.79 -1.98,-2.44 -0.62,-0.65 -1.51,-1.5 -2.67,-2.58l-10.19 -9.06c-2.05,-1.85 -3.55,-3.82 -4.49,-5.88 -0.94,-2.06 -1.41,-4.59 -1.41,-7.57 0,-4.4 1.28,-7.84 3.83,-10.29 2.55,-2.45 6.05,-3.7 10.48,-3.76 4.86,-0.08 8.5,1.18 10.93,3.76 2.42,2.58 3.87,6.57 4.35,11.98l-7.15 1.98c-0.1,-1.33 -0.22,-2.49 -0.4,-3.52 -0.17,-1.04 -0.45,-2.07 -0.84,-3.1 -0.4,-1.04 -0.88,-1.89 -1.44,-2.53 -0.56,-0.65 -1.3,-1.17 -2.23,-1.54 -0.94,-0.39 -2.02,-0.54 -3.23,-0.46 -4.48,0.31 -6.71,2.54 -6.71,6.67 0,1.79 0.3,3.28 0.91,4.48 0.61,1.19 1.64,2.45 3.08,3.77l10.26 9.06c2.67,2.4 4.79,4.97 6.37,7.7 1.58,2.74 2.37,5.84 2.37,9.32 0,4.44 -1.35,7.97 -4.04,10.58 -2.69,2.6 -6.2,3.9 -10.53,3.9zm27.47 -0.66l0 -54.52 -11.11 0 0 -6.27 30.29 0 0 6.27 -10.7 0 0 54.52 -8.47 0zm32.27 -21.38l10.16 0 -5.09 -27.46 -5.07 27.46zm-12.03 21.38l12.98 -60.79 8.19 0 12.98 60.79 -8.07 0 -2.78 -15.33 -12.37 0 -2.89 15.33 -8.04 0zm40.11 0l1.14 -60.79 8.29 0 10.75 49.31 10.81 -49.31 8.29 0 1.14 60.79 -6.86 0 -0.66 -44.18 -10.3 44.18 -4.77 0 -10.23 -44.18 -0.66 44.18 -6.93 0zm58.24 -34.4l3.84 0c3.72,0 6.27,-0.66 7.67,-1.98 1.39,-1.33 2.09,-3.85 2.09,-7.6 0,-1.54 -0.04,-2.8 -0.11,-3.79 -0.08,-0.99 -0.24,-1.93 -0.5,-2.8 -0.25,-0.88 -0.59,-1.56 -1,-2.04 -0.43,-0.48 -1,-0.88 -1.74,-1.23 -0.75,-0.34 -1.62,-0.58 -2.62,-0.69 -0.99,-0.13 -2.21,-0.19 -3.68,-0.19l-3.95 0 0 20.31zm-8.47 34.4l0 -60.79 15.07 0c5.28,0 9.1,1.41 11.48,4.27 2.37,2.84 3.56,7.02 3.56,12.52 0,4.94 -1.28,8.79 -3.83,11.55 -2.55,2.77 -6.27,4.14 -11.16,4.14l-6.63 0 0 28.31 -8.47 0zm41.9 -21.38l10.16 0 -5.09 -27.46 -5.07 27.46zm-12.03 21.38l12.98 -60.79 8.19 0 12.98 60.79 -8.07 0 -2.78 -15.33 -12.37 0 -2.89 15.33 -8.04 0zm40.3 0l0 -60.79 13.21 0c6.57,0 11.21,1.49 13.91,4.47 2.7,2.98 4.05,7.67 4.05,14.08l0 22.37c0,6.67 -1.34,11.65 -4.02,14.94 -2.68,3.29 -7.12,4.93 -13.33,4.93l-13.82 0zm8.47 -6.08l4.77 0c1.29,0 2.43,-0.14 3.42,-0.39 0.99,-0.26 1.81,-0.56 2.48,-0.91 0.66,-0.36 1.22,-0.93 1.67,-1.71 0.46,-0.78 0.8,-1.5 1.04,-2.15 0.23,-0.66 0.4,-1.64 0.53,-2.94 0.13,-1.29 0.2,-2.4 0.23,-3.32 0.03,-0.91 0.04,-2.24 0.04,-3.98l0 -19.76c0,-1.46 -0.03,-2.7 -0.08,-3.7 -0.05,-1 -0.15,-2 -0.3,-3 -0.15,-1 -0.36,-1.83 -0.66,-2.45 -0.29,-0.64 -0.66,-1.24 -1.13,-1.81 -0.46,-0.58 -1.04,-1.01 -1.73,-1.33 -0.69,-0.3 -1.49,-0.54 -2.42,-0.71 -0.94,-0.17 -2.03,-0.25 -3.27,-0.25l-4.58 0 0 48.44zm46.56 6.75c-3.03,0 -5.63,-0.45 -7.78,-1.36 -2.17,-0.9 -3.88,-2.23 -5.16,-3.99 -1.28,-1.76 -2.2,-3.82 -2.79,-6.16 -0.57,-2.35 -0.88,-5.08 -0.88,-8.21l0 -23.03c0,-6.33 1.29,-11.13 3.87,-14.39 2.58,-3.27 6.83,-4.89 12.74,-4.89 5.89,0 10.14,1.64 12.73,4.93 2.59,3.28 3.88,8.07 3.88,14.36l0 23.05c0,6.33 -1.3,11.2 -3.91,14.59 -2.6,3.4 -6.83,5.11 -12.7,5.11zm-4.12 -7.41c1.09,0.51 2.45,0.76 4.12,0.76 1.66,0 3.04,-0.25 4.13,-0.76 1.09,-0.51 1.92,-1.3 2.48,-2.35 0.55,-1.05 0.94,-2.2 1.15,-3.46 0.2,-1.26 0.31,-2.83 0.31,-4.68l0 -26.62c0,-1.83 -0.11,-3.35 -0.31,-4.58 -0.21,-1.23 -0.6,-2.35 -1.15,-3.38 -0.56,-1.03 -1.39,-1.78 -2.48,-2.25 -1.09,-0.48 -2.47,-0.71 -4.13,-0.71 -1.66,0 -3.03,0.24 -4.12,0.71 -1.09,0.48 -1.92,1.23 -2.48,2.25 -0.56,1.03 -0.95,2.15 -1.15,3.38 -0.21,1.23 -0.31,2.75 -0.31,4.58l0 26.62c0,1.85 0.1,3.42 0.31,4.68 0.2,1.25 0.59,2.4 1.15,3.46 0.56,1.05 1.39,1.84 2.48,2.35zm43.42 7.41c-5.11,0 -9,-1.58 -11.68,-4.73 -2.68,-3.15 -4.17,-7.47 -4.49,-12.94l7.56 -2.05c0.54,8.7 3.4,13.05 8.61,13.05 2.18,0 3.84,-0.61 4.97,-1.83 1.14,-1.2 1.71,-2.98 1.71,-5.33 0,-1.29 -0.16,-2.48 -0.46,-3.55 -0.3,-1.08 -0.8,-2.1 -1.5,-3.08 -0.7,-0.98 -1.35,-1.79 -1.98,-2.44 -0.62,-0.65 -1.51,-1.5 -2.67,-2.58l-10.19 -9.06c-2.05,-1.85 -3.55,-3.82 -4.49,-5.88 -0.94,-2.06 -1.41,-4.59 -1.41,-7.57 0,-4.4 1.28,-7.84 3.83,-10.29 2.55,-2.45 6.05,-3.7 10.48,-3.76 4.86,-0.08 8.5,1.18 10.93,3.76 2.42,2.58 3.87,6.57 4.35,11.98l-7.15 1.98c-0.1,-1.33 -0.22,-2.49 -0.4,-3.52 -0.17,-1.04 -0.45,-2.07 -0.84,-3.1 -0.4,-1.04 -0.88,-1.89 -1.44,-2.53 -0.56,-0.65 -1.3,-1.17 -2.23,-1.54 -0.94,-0.39 -2.02,-0.54 -3.23,-0.46 -4.48,0.31 -6.71,2.54 -6.71,6.67 0,1.79 0.3,3.28 0.91,4.48 0.61,1.19 1.64,2.45 3.08,3.77l10.26 9.06c2.67,2.4 4.79,4.97 6.37,7.7 1.58,2.74 2.37,5.84 2.37,9.32 0,4.44 -1.35,7.97 -4.04,10.58 -2.69,2.6 -6.2,3.9 -10.53,3.9z"/>
 </g>
</svg>
